<svg width="196" height="60" viewBox="0 0 196 60" fill="none" xmlns="http://www.w3.org/2000/svg">
<path d="M30 2.58984C13.7129 2.58984 0 13.7689 0 28.1454C0 36.1271 4.3057 43.5357 11.6338 48.3603L6.8291 54.1259C5.58574 55.6178 7.00371 57.8639 8.90473 57.3322L23.8171 53.1577C42.2595 56.4437 60 44.574 60 28.1455C60 13.7716 46.2901 2.58984 30 2.58984Z" fill="#3F8931"/>
<path d="M30 2.58984C13.7129 2.58984 0 13.7689 0 28.1454C0 36.1271 4.3057 43.5357 11.6338 48.3603L6.8291 54.1259C5.58574 55.6178 7.00371 57.8639 8.90473 57.3322L23.8171 53.1577C42.2595 56.4437 60 44.574 60 28.1455C60 13.7716 46.2901 2.58984 30 2.58984Z" fill="url(#paint0_linear_1051_51024)"/>
<path d="M30 40.6255L28.26 39.0655C26.24 37.2455 24.57 35.6755 23.25 34.3555C21.93 33.0355 20.88 31.8505 20.1 30.8005C19.32 29.7505 18.775 28.7855 18.465 27.9055C18.155 27.0255 18 26.1255 18 25.2055C18 23.3255 18.63 21.7555 19.89 20.4955C21.15 19.2355 22.72 18.6055 24.6 18.6055C25.64 18.6055 26.63 18.8255 27.57 19.2655C28.51 19.7055 29.32 20.3255 30 21.1255C30.68 20.3255 31.49 19.7055 32.43 19.2655C33.37 18.8255 34.36 18.6055 35.4 18.6055C37.28 18.6055 38.85 19.2355 40.11 20.4955C41.37 21.7555 42 23.3255 42 25.2055C42 26.1255 41.845 27.0255 41.535 27.9055C41.225 28.7855 40.68 29.7505 39.9 30.8005C39.12 31.8505 38.07 33.0355 36.75 34.3555C35.43 35.6755 33.76 37.2455 31.74 39.0655L30 40.6255Z" fill="#29751B"/>
<path d="M73.4743 19.1196H82.8493C84.5539 19.1196 85.9197 19.5238 86.9468 20.3324C87.9739 21.1191 88.4875 22.2992 88.4875 23.8727C88.4875 25.3368 88.1051 26.6371 87.3402 27.7735C86.5972 28.9099 85.4717 29.6747 83.9639 30.0681L83.9311 30.232C85.0893 30.5379 85.9416 31.0624 86.4879 31.8054C87.0343 32.5266 87.3074 33.4444 87.3074 34.5589C87.3074 35.6516 87.1326 36.6569 86.7829 37.5747C86.4333 38.4707 85.9307 39.2465 85.2751 39.9021C84.6195 40.5577 83.8109 41.0712 82.8493 41.4427C81.8878 41.8142 80.7842 42 79.5386 42H68.8851L73.4743 19.1196ZM79.5386 38.427C80.3908 38.427 81.0901 38.2194 81.6365 37.8042C82.2047 37.3889 82.5762 36.7443 82.751 35.8701C82.8603 35.302 82.9368 34.8867 82.9805 34.6245C83.0242 34.3404 83.046 34.1219 83.046 33.9689C83.046 33.4007 82.8603 32.9527 82.4888 32.6249C82.1173 32.2971 81.5491 32.1332 80.7842 32.1332H74.9821L73.7365 38.427H79.5386ZM80.5875 28.7241C81.4835 28.7241 82.2047 28.5383 82.751 28.1668C83.3192 27.7953 83.6907 27.1725 83.8655 26.2984C83.9748 25.7739 84.0403 25.3805 84.0622 25.1183C84.1059 24.8561 84.1278 24.6485 84.1278 24.4955C84.1278 23.9491 83.9529 23.5121 83.6033 23.1843C83.2536 22.8565 82.7291 22.6926 82.0298 22.6926H76.8834L75.6705 28.7241H80.5875ZM96.2425 42.3934C94.232 42.3934 92.6258 41.7815 91.4239 40.5577C90.2219 39.3339 89.621 37.5747 89.621 35.2801C89.621 33.7722 89.8395 32.3627 90.2766 31.0515C90.7136 29.7403 91.3255 28.6039 92.1122 27.6424C92.899 26.659 93.8277 25.8941 94.8985 25.3478C95.9694 24.7796 97.1494 24.4955 98.4388 24.4955C100.449 24.4955 102.056 25.1074 103.257 26.3312C104.459 27.5549 105.06 29.3141 105.06 31.6087C105.06 33.1166 104.842 34.5262 104.405 35.8374C103.968 37.1486 103.356 38.2959 102.569 39.2793C101.782 40.2408 100.843 41.0057 99.75 41.5739C98.6792 42.1202 97.51 42.3934 96.2425 42.3934ZM96.472 39.1154C97.4554 39.1154 98.2858 38.7548 98.9633 38.0336C99.6626 37.3125 100.143 36.2635 100.406 34.8867L100.996 32.0349C101.039 31.8163 101.072 31.6306 101.094 31.4776C101.116 31.3028 101.127 31.0952 101.127 30.8548C101.127 29.937 100.875 29.1939 100.373 28.6258C99.892 28.0576 99.1709 27.7735 98.2093 27.7735C97.2259 27.7735 96.3846 28.1341 95.6853 28.8552C95.0078 29.5764 94.538 30.6253 94.2757 32.0021L93.6857 34.8867C93.642 35.0616 93.6092 35.2364 93.5873 35.4112C93.5655 35.586 93.5546 35.7937 93.5546 36.034C93.5546 36.9519 93.795 37.6949 94.2757 38.2631C94.7784 38.8313 95.5104 39.1154 96.472 39.1154ZM109.647 42C108.795 42 108.117 41.7815 107.615 41.3444C107.134 40.8855 106.893 40.2845 106.893 39.5415C106.893 39.4104 106.893 39.3011 106.893 39.2137C106.915 39.1044 106.948 38.9515 106.992 38.7548L111.188 17.7428H115.154L110.958 38.7548H113.154L112.532 42H109.647ZM121.853 42.3934C119.843 42.3934 118.236 41.7815 117.035 40.5577C115.833 39.3339 115.232 37.5747 115.232 35.2801C115.232 33.7722 115.45 32.3627 115.887 31.0515C116.324 29.7403 116.936 28.6039 117.723 27.6424C118.51 26.659 119.438 25.8941 120.509 25.3478C121.58 24.7796 122.76 24.4955 124.049 24.4955C126.06 24.4955 127.666 25.1074 128.868 26.3312C130.07 27.5549 130.671 29.3141 130.671 31.6087C130.671 33.1166 130.452 34.5262 130.015 35.8374C129.578 37.1486 128.966 38.2959 128.18 39.2793C127.393 40.2408 126.453 41.0057 125.361 41.5739C124.29 42.1202 123.121 42.3934 121.853 42.3934ZM122.083 39.1154C123.066 39.1154 123.896 38.7548 124.574 38.0336C125.273 37.3125 125.754 36.2635 126.016 34.8867L126.606 32.0349C126.65 31.8163 126.683 31.6306 126.705 31.4776C126.726 31.3028 126.737 31.0952 126.737 30.8548C126.737 29.937 126.486 29.1939 125.983 28.6258C125.503 28.0576 124.782 27.7735 123.82 27.7735C122.837 27.7735 121.995 28.1341 121.296 28.8552C120.618 29.5764 120.149 30.6253 119.886 32.0021L119.296 34.8867C119.253 35.0616 119.22 35.2364 119.198 35.4112C119.176 35.586 119.165 35.7937 119.165 36.034C119.165 36.9519 119.406 37.6949 119.886 38.2631C120.389 38.8313 121.121 39.1154 122.083 39.1154ZM132.111 42L136.7 19.1196H140.83L136.995 38.3286H145.682L144.961 42H132.111ZM154.282 42.3934C152.272 42.3934 150.666 41.7815 149.464 40.5577C148.262 39.3339 147.661 37.5747 147.661 35.2801C147.661 33.7722 147.879 32.3627 148.316 31.0515C148.753 29.7403 149.365 28.6039 150.152 27.6424C150.939 26.659 151.868 25.8941 152.938 25.3478C154.009 24.7796 155.189 24.4955 156.479 24.4955C158.489 24.4955 160.095 25.1074 161.297 26.3312C162.499 27.5549 163.1 29.3141 163.1 31.6087C163.1 33.1166 162.882 34.5262 162.445 35.8374C162.007 37.1486 161.396 38.2959 160.609 39.2793C159.822 40.2408 158.882 41.0057 157.79 41.5739C156.719 42.1202 155.55 42.3934 154.282 42.3934ZM154.512 39.1154C155.495 39.1154 156.326 38.7548 157.003 38.0336C157.702 37.3125 158.183 36.2635 158.445 34.8867L159.035 32.0349C159.079 31.8163 159.112 31.6306 159.134 31.4776C159.156 31.3028 159.167 31.0952 159.167 30.8548C159.167 29.937 158.915 29.1939 158.413 28.6258C157.932 28.0576 157.211 27.7735 156.249 27.7735C155.266 27.7735 154.424 28.1341 153.725 28.8552C153.048 29.5764 152.578 30.6253 152.316 32.0021L151.725 34.8867C151.682 35.0616 151.649 35.2364 151.627 35.4112C151.605 35.586 151.594 35.7937 151.594 36.034C151.594 36.9519 151.835 37.6949 152.316 38.2631C152.818 38.8313 153.55 39.1154 154.512 39.1154ZM167.205 42L164.943 24.8888H168.877L169.631 31.9038L170.188 38.3942H170.385L173.335 31.9038L176.81 24.8888H181.071L172.024 42H167.205ZM187.008 42.3934C184.692 42.3934 182.943 41.7487 181.763 40.4593C180.605 39.17 180.026 37.378 180.026 35.0834C180.026 33.7067 180.244 32.3845 180.682 31.117C181.119 29.8277 181.73 28.6913 182.517 27.7079C183.326 26.7245 184.287 25.9487 185.402 25.3805C186.538 24.7905 187.806 24.4955 189.204 24.4955C189.882 24.4955 190.57 24.5829 191.269 24.7577C191.969 24.9107 192.602 25.1729 193.171 25.5444C193.739 25.8941 194.209 26.3749 194.58 26.9868C194.952 27.5987 195.137 28.3417 195.137 29.2158C195.137 31.0078 194.252 32.4064 192.482 33.4116C190.734 34.4169 187.926 34.9632 184.058 35.0506C183.992 35.4877 183.96 35.8046 183.96 36.0013C183.96 36.941 184.222 37.6949 184.746 38.2631C185.271 38.8313 186.123 39.1154 187.303 39.1154C188.155 39.1154 188.931 38.9296 189.63 38.5581C190.33 38.1866 191.051 37.5419 191.794 36.6241L194.252 38.6564C193.182 40.0332 192.056 41.0057 190.876 41.5739C189.718 42.1202 188.429 42.3934 187.008 42.3934ZM188.942 27.5768C187.849 27.5768 186.921 27.9374 186.156 28.6585C185.391 29.3797 184.888 30.3631 184.648 31.6087L184.484 32.4282C185.883 32.3627 187.019 32.2534 187.893 32.1004C188.789 31.9256 189.477 31.718 189.958 31.4776C190.461 31.2372 190.8 30.9531 190.974 30.6253C191.149 30.2975 191.237 29.926 191.237 29.5108C191.237 29.1175 191.16 28.8006 191.007 28.5602C190.876 28.298 190.701 28.1013 190.483 27.9702C190.264 27.8172 190.013 27.7188 189.729 27.6751C189.467 27.6096 189.204 27.5768 188.942 27.5768Z" fill="#022441"/>
<defs>
<linearGradient id="paint0_linear_1051_51024" x1="4.29496" y1="51.6665" x2="56.5543" y2="43.2862" gradientUnits="userSpaceOnUse">
<stop stop-color="#F65205"/>
<stop offset="1" stop-color="#FF8951"/>
</linearGradient>
</defs>
</svg>
